<svg xmlns="http://www.w3.org/2000/svg" viewBox="0 0 25 25">
  <defs>
    <style>
      .cls-1 {
        fill: #707070;
      }
    </style>
  </defs>
  <g id="instagram" transform="translate(-991 -83)">
    <path id="Path_1" data-name="Path 1" class="cls-1" d="M18.233,0H6.767A6.775,6.775,0,0,0,0,6.767V18.233A6.775,6.775,0,0,0,6.767,25H18.233A6.775,6.775,0,0,0,25,18.233V6.767A6.775,6.775,0,0,0,18.233,0Zm5.3,18.233a5.308,5.308,0,0,1-5.3,5.3H6.767a5.308,5.308,0,0,1-5.3-5.3V6.767a5.308,5.308,0,0,1,5.3-5.3H18.233a5.308,5.308,0,0,1,5.3,5.3Zm0,0" transform="translate(991 83)"/>
    <path id="Path_2" data-name="Path 2" class="cls-1" d="M122.16,116a6.156,6.156,0,1,0,6.156,6.156A6.163,6.163,0,0,0,122.16,116Zm0,10.992A4.836,4.836,0,1,1,127,122.16,4.842,4.842,0,0,1,122.16,127Zm0,0" transform="translate(881.34 -26.66)"/>
    <path id="Path_3" data-name="Path 3" class="cls-1" d="M360.239,66.285a2.262,2.262,0,1,0,2.262,2.262A2.265,2.265,0,0,0,360.239,66.285Zm0,2.883a.621.621,0,1,1,.621-.621A.622.622,0,0,1,360.239,69.168Zm0,0" transform="translate(649.6 20.34)"/>
  </g>
</svg>
