<svg xmlns="http://www.w3.org/2000/svg" viewBox="0 0 25 19.101">
  <defs>
    <style>
      .cls-1 {
        fill: #707070;
      }
    </style>
  </defs>
  <g id="telegram" transform="translate(-895 -126)">
    <path id="telegram-2" data-name="telegram" class="cls-1" d="M24.793.832A.905.905,0,0,0,23.78.556L.848,8.843A1.286,1.286,0,0,0,.56,11.114l3.278,2.238a1.032,1.032,0,0,0,1.066.061l7.111-3.75L6.472,13.8a1.04,1.04,0,0,0-.416.829v3.833a1.076,1.076,0,0,0,1.67.9l2.49-1.652,2.449,1.67a1.291,1.291,0,0,0,1.824-.385L24.865,1.882A.908.908,0,0,0,24.793.832ZM13.339,18.062,10.8,16.332a1.03,1.03,0,0,0-1.155-.007l-2.126,1.41V14.846l9.786-7.307a1.035,1.035,0,0,0-1.1-1.744L4.45,11.994,1.677,10.1,22.795,2.47Zm0,0" transform="translate(895.001 125.5)"/>
  </g>
</svg>
