<svg xmlns="http://www.w3.org/2000/svg" viewBox="0 0 25 25">
  <defs>
    <style>
      .cls-1 {
        fill: #707070;
      }
    </style>
  </defs>
  <g id="whatsapp-3" transform="translate(-895 -83)">
    <path id="Path_4" data-name="Path 4" class="cls-1" d="M21.449,3.551A12.043,12.043,0,0,0,12.876,0h0A12.126,12.126,0,0,0,2.1,17.684L.064,23.505A1.124,1.124,0,0,0,1.12,25a1.132,1.132,0,0,0,.374-.064L7.316,22.9A12.124,12.124,0,0,0,21.449,3.551ZM20.412,19.659A10.661,10.661,0,0,1,7.873,21.535a1.129,1.129,0,0,0-.9-.07L1.684,23.316l1.851-5.289a1.13,1.13,0,0,0-.07-.9,10.658,10.658,0,0,1,9.41-15.66h0a10.657,10.657,0,0,1,7.536,18.193Zm0,0" transform="translate(895 83)"/>
    <path id="Path_5" data-name="Path 5" class="cls-1" d="M139.088,121.831a1.506,1.506,0,0,0-2.127,0l-.641.641a9.337,9.337,0,0,1-3.75-3.75l.641-.641a1.506,1.506,0,0,0,0-2.127l-1.729-1.729a1.506,1.506,0,0,0-2.127,0l-1.383,1.383c-.792.792-.832,2.154-.111,3.835a16.83,16.83,0,0,0,7.739,7.739,5.582,5.582,0,0,0,2.152.513,2.292,2.292,0,0,0,1.682-.624l1.383-1.383h0a1.5,1.5,0,0,0,0-2.127Zm-.745,4.149c-.226.226-.921.305-2.137-.215a15.33,15.33,0,0,1-6.929-6.929c-.521-1.215-.442-1.911-.216-2.137l1.356-1.356,1.675,1.675-.8.8a1.177,1.177,0,0,0-.218,1.37,10.878,10.878,0,0,0,4.778,4.778,1.177,1.177,0,0,0,1.37-.218l.8-.8,1.675,1.675Zm0,0" transform="translate(773.51 -25.551)"/>
  </g>
</svg>
